<?xml version="1.0" encoding="UTF-8"?>
<svg width="24px" height="24px" viewBox="0 0 24 24" version="1.1" xmlns="http://www.w3.org/2000/svg" xmlns:xlink="http://www.w3.org/1999/xlink">
    <!-- Generator: Sketch 55.2 (78181) - https://sketchapp.com -->
    <title>icon/24px/ flags / HK</title>
    <desc>Created with Sketch.</desc>
    <defs>
        <polygon id="path-1" points="0.0002 0.0002 24 0.0002 24 24 0.0002 24"></polygon>
    </defs>
    <g id="icon/24px/-flags-/-HK" stroke="none" stroke-width="1" fill="none" fill-rule="evenodd">
        <g id="Group-14">
            <g id="Group-3">
                <mask id="mask-2" fill="white">
                    <use xlink:href="#path-1"></use>
                </mask>
                <g id="Clip-2"></g>
                <path d="M12.0002,0.0002 L12.0002,0.0002 C5.3732,0.0002 0.0002,5.3732 0.0002,12.0002 C0.0002,18.6272 5.3732,24.0002 12.0002,24.0002 C18.6272,24.0002 24.0002,18.6272 24.0002,12.0002 C24.0002,5.3732 18.6272,0.0002 12.0002,0.0002" id="Fill-1" fill="#E22727" mask="url(#mask-2)"></path>
            </g>
            <path d="M8.2502,11.8201 L8.0002,11.4701 L7.6702,11.4701 L7.9702,11.2601 L7.8702,10.9001 L8.1702,11.1201 L8.4802,10.9101 L8.3602,11.2601 L8.6502,11.4901 L8.3702,11.4901 L8.2502,11.8201 Z M10.3502,12.6801 C9.6562,12.6921 8.9932,12.3951 8.5402,11.8701 C8.5002,11.8281 8.5002,11.7621 8.5402,11.7201 C8.5822,11.6801 8.6472,11.6801 8.6902,11.7201 C9.3522,12.4441 10.3992,12.6691 11.3002,12.2801 C11.0492,12.3071 10.7962,12.2621 10.5702,12.1501 C9.7602,11.6201 10.1302,11.0501 9.5702,10.3701 C9.1682,9.8121 8.4462,9.5881 7.8002,9.8201 C7.3182,9.9191 6.8482,9.6101 6.7492,9.1281 C6.7452,9.1121 6.7422,9.0961 6.7402,9.0801 C6.7272,9.0491 6.6912,9.0361 6.6612,9.0491 C6.6472,9.0551 6.6362,9.0661 6.6302,9.0801 C5.7002,11.6001 8.5002,14.7201 11.3802,12.4801 C11.0502,12.6031 10.7022,12.6711 10.3502,12.6801 L10.3502,12.6801 Z" id="Fill-4" fill="#F5F5F5"></path>
            <path d="M14.6096,10.4202 L14.9106,10.6402 L15.2106,10.4302 L15.0896,10.7802 L15.3806,11.0002 L15.0096,11.0002 L14.8896,11.3502 L14.7796,11.0002 L14.4106,11.0002 L14.7106,10.7802 L14.6096,10.4202 Z M12.4096,11.0002 C12.9596,10.5722 13.6706,10.4112 14.3496,10.5602 C14.4076,10.5752 14.4426,10.6322 14.4296,10.6902 C14.4156,10.7432 14.3646,10.7772 14.3096,10.7702 C13.3466,10.5902 12.3756,11.0392 11.8896,11.8902 C12.0766,11.7182 12.3096,11.6032 12.5596,11.5602 C13.5596,11.5002 13.5596,12.1702 14.4106,12.4002 C15.2596,12.6302 15.6206,12.3202 16.1606,11.7802 C16.4986,11.4232 17.0616,11.4092 17.4186,11.7482 C17.4286,11.7582 17.4396,11.7692 17.4506,11.7802 C17.4786,11.7972 17.5146,11.7872 17.5326,11.7592 C17.5396,11.7472 17.5426,11.7332 17.5406,11.7202 C16.7696,9.1402 12.6596,8.3302 11.6996,11.8502 C11.8846,11.5272 12.1256,11.2392 12.4096,11.0002 L12.4096,11.0002 Z" id="Fill-6" fill="#F5F5F5"></path>
            <path d="M10.8699,8.9802 L11.1599,8.7502 L10.9999,8.3102 L11.3099,8.5102 L11.5999,8.2802 L11.5099,8.6402 L11.8199,8.8502 L11.4499,8.8502 L11.3499,9.2102 L11.2299,9.0002 L10.8699,8.9802 Z M10.8699,11.2502 C10.5899,10.6082 10.6119,9.8742 10.9299,9.2502 C10.9709,9.2162 11.0299,9.2162 11.0699,9.2502 C11.1039,9.2912 11.1039,9.3492 11.0699,9.3902 C10.6709,10.2822 10.8799,11.3292 11.5899,12.0002 C11.4709,11.7762 11.4189,11.5222 11.4399,11.2702 C11.6199,10.2702 12.2899,10.4402 12.7099,9.6902 C13.0739,9.1052 13.0039,8.3492 12.5399,7.8402 C12.2659,7.4322 12.3729,6.8792 12.7809,6.6052 C12.7939,6.5962 12.8069,6.5882 12.8199,6.5802 C12.8479,6.5622 12.8549,6.5242 12.8369,6.4972 C12.8319,6.4902 12.8269,6.4842 12.8199,6.4802 C10.1299,6.5802 8.3199,10.3602 11.4899,12.1702 C11.2309,11.9022 11.0209,11.5902 10.8699,11.2502 L10.8699,11.2502 Z" id="Fill-8" fill="#F5F5F5"></path>
            <path d="M14.2405,14.3703 L14.1305,14.7203 L14.4295,14.9393 L14.0595,14.9393 L13.9395,15.2903 L13.8305,14.9393 L13.4605,14.9393 L13.7605,14.7203 L13.6495,14.3703 L13.9505,14.5903 L14.2405,14.3703 Z M13.0005,12.4703 C13.5675,12.8613 13.9335,13.4833 14.0005,14.1703 C14.0065,14.2303 13.9615,14.2843 13.9005,14.2903 L13.8995,14.2903 C13.8455,14.2913 13.8005,14.2533 13.7905,14.2003 C13.6805,13.2093 12.9465,12.4023 11.9695,12.2003 C12.1945,12.3213 12.3785,12.5053 12.5005,12.7303 C12.8605,13.6303 12.2405,13.8803 12.2895,14.7293 C12.3405,15.5803 12.7405,15.8493 13.4295,16.1893 C13.8825,16.3833 14.0925,16.9053 13.8995,17.3573 C13.8925,17.3723 13.8865,17.3863 13.8805,17.3993 C13.8685,17.4313 13.8855,17.4653 13.9165,17.4763 C13.9335,17.4833 13.9545,17.4803 13.9695,17.4703 C16.1795,15.9303 15.6605,11.7693 11.9695,11.9603 C12.3415,12.0653 12.6905,12.2383 13.0005,12.4703 L13.0005,12.4703 Z" id="Fill-10" fill="#F5F5F5"></path>
            <path d="M10.3098,15.2795 L9.9198,15.2795 L9.7998,15.6305 L9.6898,15.2795 L9.2198,15.2795 L9.5198,15.0595 L9.4098,14.7105 L9.7098,14.9295 L10.0098,14.7195 L9.8898,15.0695 L10.3098,15.2795 Z M11.7498,13.5195 C11.5538,14.1825 11.0738,14.7235 10.4398,15.0005 C10.3988,15.0335 10.3408,15.0335 10.2998,15.0005 C10.2778,14.9475 10.2998,14.8865 10.3498,14.8595 C11.2358,14.4395 11.7578,13.5045 11.6498,12.5295 C11.6018,12.7785 11.4838,13.0075 11.3098,13.1895 C10.5598,13.8095 10.1298,13.2905 9.3098,13.5995 C8.4898,13.9105 8.3798,14.3705 8.3098,15.1305 C8.2648,15.6195 7.8308,15.9785 7.3408,15.9335 C7.3308,15.9325 7.3208,15.9305 7.3098,15.9295 C7.2828,15.9485 7.2748,15.9855 7.2928,16.0125 C7.2978,16.0195 7.3038,16.0255 7.3098,16.0295 C9.4398,17.6605 13.2498,15.8995 11.9598,12.4895 C11.9478,12.8425 11.8768,13.1905 11.7498,13.5195 L11.7498,13.5195 Z" id="Fill-12" fill="#F5F5F5"></path>
        </g>
    </g>
</svg>