<?xml version="1.0" encoding="UTF-8"?>
<svg width="24px" height="24px" viewBox="0 0 24 24" version="1.1" xmlns="http://www.w3.org/2000/svg" xmlns:xlink="http://www.w3.org/1999/xlink">
    <!-- Generator: Sketch 55.2 (78181) - https://sketchapp.com -->
    <title>icon/24px/ flags /USA</title>
    <desc>Created with Sketch.</desc>
    <defs>
        <polygon id="path-1" points="0 0.0501 11.9999 0.0501 11.9999 12.8501 0 12.8501"></polygon>
        <polygon id="path-3" points="0.63 0.4602 3.37 0.4602 3.37 1 0.63 1"></polygon>
    </defs>
    <g id="icon/24px/-flags-/USA" stroke="none" stroke-width="1" fill="none" fill-rule="evenodd">
        <circle id="Oval" fill="#F0F0F0" fill-rule="nonzero" cx="12" cy="12.05" r="12"></circle>
        <g id="Group-3">
            <mask id="mask-2" fill="white">
                <use xlink:href="#path-1"></use>
            </mask>
            <g id="Clip-2"></g>
            <path d="M7.6099,0.9001 L8.0599,1.0001 L7.6899,1.3601 L7.7799,1.8701 L7.3199,1.6301 L6.8599,1.8701 L6.9499,1.3601 L6.8499,1.2701 C2.6879,3.2261 0.0229,7.4011 -0.0001,12.0001 L-0.0001,12.8501 L11.9999,12.8501 L11.9999,0.0501 C10.4959,0.0561 9.0069,0.3441 7.6099,0.9001" id="Fill-1" fill="#1C1C7F" mask="url(#mask-2)"></path>
        </g>
        <path d="M10.6299,23.9201 L13.3699,23.9201 C15.1799,23.7131 16.9179,23.0941 18.4499,22.1091 L5.5499,22.1091 C7.0829,23.0941 8.8199,23.7131 10.6299,23.9201" id="Fill-4" fill="#E8232E"></path>
        <path d="M23.6699,14.6799 L0.3299,14.6799 C0.4699,15.3079 0.6609,15.9229 0.8999,16.5199 L23.0999,16.5199 C23.3399,15.9229 23.5299,15.3079 23.6699,14.6799" id="Fill-6" fill="#E8232E"></path>
        <path d="M1.8599,18.3898 C2.2709,19.0398 2.7429,19.6498 3.2699,20.2098 L20.7309,20.2098 C21.2569,19.6498 21.7299,19.0398 22.1399,18.3898 L1.8599,18.3898 Z" id="Fill-8" fill="#E8232E"></path>
        <g id="Group-14" transform="translate(10.000000, 23.000000)">
            <mask id="mask-4" fill="white">
                <use xlink:href="#path-3"></use>
            </mask>
            <g id="Clip-13"></g>
            <path d="M2,1.0002 C2.458,0.9992 2.915,0.9732 3.37,0.9202 L0.63,0.9202 C1.085,0.9732 1.542,0.9992 2,1.0002" id="Fill-12" fill="#FFFFFF" mask="url(#mask-4)"></path>
        </g>
        <polygon id="Fill-17" fill="#E8232E" points="12 12.8498 23.94 12.8498 23.94 12.0298 23.94 11.0298 12 11.0298"></polygon>
        <path d="M12,9.2102 L23.64,9.2102 C23.479,8.5702 23.265,7.9442 23,7.3402 L12,7.3402 L12,9.2102 Z" id="Fill-19" fill="#E8232E"></path>
        <path d="M12,5.5402 L22.06,5.5402 C21.629,4.8762 21.133,4.2562 20.58,3.6902 L12,3.6902 L12,5.5402 Z" id="Fill-21" fill="#E8232E"></path>
        <polygon id="Fill-23" fill="#FFFFFF" points="4.3301 5.5402 4.5601 6.0002 5.0701 6.0702 4.7001 6.4302 4.7901 6.9402 4.3301 6.7002 3.8801 6.9402 3.9601 6.4302 3.5901 6.0702 4.1101 6.0002"></polygon>
        <polygon id="Fill-25" fill="#FFFFFF" points="5.9102 4.34 6.1302 4.8 6.6402 4.88 6.2802 5.24 6.3602 5.75 5.9102 5.51 5.4502 5.75 5.5402 5.24 5.1702 4.88 5.6802 4.8"></polygon>
        <polygon id="Fill-27" fill="#FFFFFF" points="7.3799 2.9299 7.6099 3.3999 8.1199 3.4699 7.7499 3.8299 7.8399 4.3399 7.3799 4.0999 6.9299 4.3399 7.0099 3.8299 6.6399 3.4699 7.1599 3.3999"></polygon>
        <polygon id="Fill-29" fill="#FFFFFF" points="10.4199 2.9299 10.6499 3.3999 11.1599 3.4699 10.7899 3.8299 10.8799 4.3399 10.4199 4.0999 9.9599 4.3399 10.0499 3.8299 9.6799 3.4699 10.1899 3.3999"></polygon>
        <polygon id="Fill-31" fill="#FFFFFF" points="8.9399 4.34 9.1699 4.8 9.6799 4.88 9.3099 5.24 9.3999 5.75 8.9399 5.51 8.4899 5.75 8.5699 5.24 8.1999 4.88 8.7099 4.8"></polygon>
        <polygon id="Fill-33" fill="#FFFFFF" points="7.3198 5.5402 7.5498 6.0002 8.0598 6.0702 7.6898 6.4302 7.7798 6.9402 7.3198 6.7002 6.8598 6.9402 6.9498 6.4302 6.5798 6.0702 7.0898 6.0002"></polygon>
        <polygon id="Fill-35" fill="#FFFFFF" points="5.9102 6.8601 6.1302 7.3301 6.6402 7.4001 6.2802 7.7601 6.3602 8.2701 5.9102 8.0301 5.4502 8.2701 5.5402 7.7601 5.1702 7.4001 5.6802 7.3301"></polygon>
        <polygon id="Fill-37" fill="#FFFFFF" points="4.3301 8.03 4.5601 8.49 5.0701 8.56 4.7001 8.92 4.7901 9.43 4.3301 9.19 3.8801 9.43 3.9601 8.92 3.5901 8.56 4.1101 8.49"></polygon>
        <polygon id="Fill-39" fill="#FFFFFF" points="2.8501 9.4001 3.0801 9.8601 3.5901 9.9301 3.2301 10.2901 3.3101 10.8001 2.8501 10.5601 2.4001 10.8001 2.4801 10.2901 2.1201 9.9301 2.6301 9.8601"></polygon>
        <polygon id="Fill-41" fill="#FFFFFF" points="1.29 10.59 1.52 11.05 2.03 11.13 1.66 11.49 1.75 12 1.29 11.76 0.83 12 0.92 11.49 0.55 11.13 1.06 11.05"></polygon>
        <polygon id="Fill-43" fill="#FFFFFF" points="2.8501 6.8601 3.0801 7.3301 3.5901 7.4001 3.2301 7.7601 3.3101 8.2701 2.8501 8.0301 2.4001 8.2701 2.4801 7.7601 2.1201 7.4001 2.6301 7.3301"></polygon>
        <polygon id="Fill-45" fill="#FFFFFF" points="1.29 8.03 1.52 8.49 2.03 8.56 1.66 8.92 1.75 9.43 1.29 9.19 0.83 9.43 0.92 8.92 0.55 8.56 1.06 8.49"></polygon>
        <polygon id="Fill-47" fill="#FFFFFF" points="10.4199 5.4602 10.6499 5.9202 11.1599 5.9902 10.7899 6.3502 10.8799 6.8602 10.4199 6.6202 9.9599 6.8602 10.0499 6.3502 9.6799 5.9902 10.1899 5.9202"></polygon>
        <polygon id="Fill-49" fill="#FFFFFF" points="8.9399 6.8601 9.1699 7.3301 9.6799 7.4001 9.3099 7.7601 9.3999 8.2701 8.9399 8.0301 8.4899 8.2701 8.5699 7.7601 8.1999 7.4001 8.7099 7.3301"></polygon>
        <polygon id="Fill-51" fill="#FFFFFF" points="7.3198 8.03 7.5498 8.49 8.0598 8.56 7.6898 8.92 7.7798 9.43 7.3198 9.19 6.8598 9.43 6.9498 8.92 6.5798 8.56 7.0898 8.49"></polygon>
        <polygon id="Fill-53" fill="#FFFFFF" points="5.9102 9.4299 6.1302 9.8999 6.6402 9.9699 6.2802 10.3299 6.3602 10.8399 5.9102 10.5999 5.4502 10.8399 5.5402 10.3299 5.1702 9.9699 5.6802 9.8999"></polygon>
        <polygon id="Fill-55" fill="#FFFFFF" points="4.3301 10.59 4.5601 11.05 5.0701 11.13 4.7001 11.49 4.7901 12 4.3301 11.76 3.8801 12 3.9601 11.49 3.5901 11.13 4.1101 11.05"></polygon>
        <polygon id="Fill-57" fill="#FFFFFF" points="7.3198 10.59 7.5498 11.05 8.0598 11.13 7.6898 11.49 7.7798 12 7.3198 11.76 6.8598 12 6.9498 11.49 6.5798 11.13 7.0898 11.05"></polygon>
        <polygon id="Fill-59" fill="#FFFFFF" points="8.9399 9.4299 9.1699 9.8999 9.6799 9.9699 9.3099 10.3299 9.3999 10.8399 8.9399 10.5999 8.4899 10.8399 8.5699 10.3299 8.1999 9.9699 8.7099 9.8999"></polygon>
        <polygon id="Fill-61" fill="#FFFFFF" points="10.4702 8.09 10.7002 8.55 11.2102 8.62 10.8402 8.98 10.9302 9.49 10.4702 9.25 10.0102 9.49 10.1002 8.98 9.7302 8.62 10.2402 8.55"></polygon>
        <polygon id="Fill-63" fill="#FFFFFF" points="10.4199 10.59 10.6499 11.05 11.1599 11.13 10.7899 11.49 10.8799 12 10.4199 11.76 9.9599 12 10.0499 11.49 9.6799 11.13 10.1899 11.05"></polygon>
        <polygon id="Fill-65" fill="#FFFFFF" points="2.8501 4.34 3.0801 4.8 3.5901 4.88 3.2301 5.24 3.3101 5.75 2.8501 5.51 2.4001 5.75 2.4801 5.24 2.1201 4.88 2.6301 4.8"></polygon>
        <polygon id="Fill-67" fill="#FFFFFF" points="4.3301 2.9299 4.5601 3.3999 5.0701 3.4699 4.7001 3.8299 4.7901 4.3399 4.3301 4.0999 3.8801 4.3399 3.9601 3.8299 3.5901 3.4699 4.1101 3.3999"></polygon>
        <path d="M1.8301,6.9401 L1.7401,6.4301 L2.1101,6.0701 L1.5801,6.0001 C1.4301,6.2501 1.3001,6.5501 1.1701,6.8101 L1.3801,6.7101 L1.8301,6.9401 Z" id="Fill-69" fill="#FFFFFF"></path>
        <path d="M22.0596,5.5402 L11.9996,5.5402 L11.9996,7.3402 L22.9996,7.3402 C22.7386,6.7142 22.4236,6.1122 22.0596,5.5402" id="Fill-71" fill="#FFFFFF"></path>
        <path d="M23.6396,9.2102 L11.9996,9.2102 L11.9996,11.0002 L23.9296,11.0002 C23.8786,10.3972 23.7826,9.7982 23.6396,9.2102" id="Fill-73" fill="#FFFFFF"></path>
    </g>
</svg>